<?xml version="1.0" standalone="no"?>
<!DOCTYPE svg PUBLIC "-//W3C//DTD SVG 20010904//EN"
 "http://www.w3.org/TR/2001/REC-SVG-20010904/DTD/svg10.dtd">
<svg version="1.0" xmlns="http://www.w3.org/2000/svg"
 width="256.000000pt" height="256.000000pt" viewBox="0 0 256.000000 256.000000"
 preserveAspectRatio="xMidYMid meet">
<metadata>
Created by potrace 1.11, written by Peter Selinger 2001-2013
</metadata>
<g transform="translate(0.000000,256.000000) scale(0.100000,-0.100000)"
fill="#000000" stroke="none">
<path d="M1140 2544 c-238 -51 -433 -245 -486 -481 -21 -98 -15 -249 15 -345
46 -146 181 -298 326 -367 103 -50 168 -65 287 -64 168 1 310 59 431 175 129
125 191 266 196 445 8 288 -180 545 -459 628 -75 22 -229 27 -310 9z"/>
<path d="M630 1374 c-254 -68 -403 -371 -415 -846 -4 -152 8 -225 51 -310 34
-68 107 -144 169 -176 l50 -27 780 0 c743 0 782 1 829 19 91 35 175 133 217
252 33 97 31 349 -6 539 -62 319 -200 507 -406 554 -79 18 -94 14 -170 -44
-84 -65 -167 -106 -269 -134 -111 -30 -304 -24 -415 12 -88 29 -171 75 -245
137 -54 45 -78 49 -170 24z"/>
</g>
</svg>
